<svg width="36" height="36" viewBox="0 0 36 36" fill="none" xmlns="http://www.w3.org/2000/svg">
<path d="M17.9845 5.83049e-06C14.3421 0.00315106 10.7864 1.1126 7.78712 3.1818C4.78781 5.25099 2.48602 8.18255 1.18585 11.5892C-0.114323 14.9959 -0.351705 18.7173 0.505066 22.2619C1.36184 25.8064 3.27244 29.0074 5.98448 31.4418L6.24698 31.6671L6.38948 31.7722C6.71198 32.0501 7.04198 32.3129 7.38698 32.5607L7.66448 32.7635C8.02448 33.0188 8.41448 33.2591 8.78198 33.5144L8.96948 33.627C9.38948 33.8748 9.81698 34.1001 10.252 34.3104C11.1983 34.7588 12.1821 35.1231 13.192 35.3993H13.2445C13.7245 35.5344 14.212 35.6471 14.7445 35.7372H14.8795C15.3595 35.8198 15.8395 35.8874 16.3345 35.9324H16.4995C16.9945 35.9775 17.497 36 17.9995 36C18.502 36 19.0045 36 19.4995 35.9324H19.6645C20.1595 35.8874 20.6395 35.8198 21.1195 35.7372H21.2545C21.7495 35.6471 22.2445 35.5344 22.7545 35.3993H22.807C23.8169 35.1231 24.8007 34.7588 25.747 34.3104C26.182 34.1001 26.6095 33.8673 27.0295 33.627L27.217 33.5144C27.5995 33.2891 27.967 33.0413 28.3345 32.7635L28.612 32.5607C28.957 32.3129 29.287 32.0501 29.6095 31.7722L29.752 31.6671L30.0145 31.4418C32.7284 29.0057 34.6398 25.802 35.4957 22.2546C36.3516 18.7071 36.1117 14.9831 34.8078 11.5752C33.5038 8.16722 31.1973 5.23592 28.1933 3.16903C25.1893 1.10214 21.6294 -0.00292898 17.9845 5.83049e-06ZM17.9845 18.0225C16.7978 18.0225 15.6378 17.6702 14.6511 17.0101C13.6644 16.35 12.8953 15.4117 12.4412 14.314C11.9871 13.2163 11.8683 12.0084 12.0998 10.843C12.3313 9.67767 12.9027 8.60724 13.7418 7.76707C14.581 6.92691 15.6501 6.35475 16.8139 6.12295C17.9778 5.89115 19.1842 6.01012 20.2806 6.46481C21.3769 6.9195 22.314 7.6895 22.9733 8.67743C23.6326 9.66536 23.9845 10.8268 23.9845 12.015C23.9845 13.6083 23.3523 15.1363 22.2271 16.263C21.1019 17.3896 19.5758 18.0225 17.9845 18.0225ZM20.2345 19.5244C22.4225 19.5244 24.5209 20.3947 26.0681 21.9438C27.6153 23.4929 28.4845 25.594 28.4845 27.7847V30.7885L28.387 30.8636C28.0945 31.1039 27.787 31.3367 27.4795 31.5544L27.2695 31.6971C26.9395 31.9299 26.5945 32.1402 26.242 32.3429L26.047 32.4556C25.6795 32.6658 25.297 32.8611 24.9295 33.0338L24.8095 33.0413C23.5594 33.6064 22.2445 34.0149 20.8945 34.2578H20.767C20.347 34.3329 19.912 34.3855 19.4845 34.4305H19.3045C18.862 34.4305 18.427 34.4906 17.9845 34.4906C17.542 34.4906 17.107 34.4906 16.6645 34.4305H16.4845C16.057 34.4305 15.622 34.3404 15.202 34.2653H15.0745C13.7255 34.0244 12.4125 33.6131 11.167 33.0413H11.0395C10.6645 32.8611 10.2895 32.6733 9.92198 32.4631L9.73448 32.2904C9.38198 32.0876 9.03698 31.8773 8.70698 31.6446L8.48948 31.5394C8.18198 31.3141 7.87448 31.0889 7.58198 30.8486L7.48448 30.7885V27.7847C7.48448 25.594 8.35367 23.4929 9.90085 21.9438C11.448 20.3947 13.5464 19.5244 15.7345 19.5244H20.2345ZM29.9845 29.3467V27.7847C29.9856 25.5364 29.2116 23.3565 27.7932 21.6134C26.3748 19.8703 24.399 18.6709 22.1995 18.2178C23.5262 17.3152 24.529 16.0105 25.0606 14.4952C25.5922 12.9799 25.6246 11.3339 25.153 9.79878C24.6815 8.26371 23.7308 6.92045 22.4405 5.96623C21.1503 5.01201 19.5885 4.4971 17.9845 4.4971C16.3804 4.4971 14.8186 5.01201 13.5284 5.96623C12.2382 6.92045 11.2875 8.26371 10.8159 9.79878C10.3443 11.3339 10.3767 12.9799 10.9083 14.4952C11.4399 16.0105 12.4427 17.3152 13.7695 18.2178C11.57 18.6709 9.59413 19.8703 8.17572 21.6134C6.75732 23.3565 5.98331 25.5364 5.98448 27.7847V29.3467C3.77256 26.9999 2.29544 24.056 1.73547 20.8783C1.1755 17.7007 1.55719 14.4283 2.83343 11.4654C4.10968 8.50242 6.22459 5.97853 8.91708 4.20529C11.6096 2.43206 14.7617 1.48711 17.9845 1.48711C21.2072 1.48711 24.3594 2.43206 27.0519 4.20529C29.7444 5.97853 31.8593 8.50242 33.1355 11.4654C34.4118 14.4283 34.7935 17.7007 34.2335 20.8783C33.6735 24.056 32.1964 26.9999 29.9845 29.3467Z" fill="#163152"/>
</svg>
