<svg width="29" height="29" viewBox="0 0 29 29" fill="none" xmlns="http://www.w3.org/2000/svg">
<path d="M5.64902 1.60214L7.73695 4.73469H3.47989L13.2062 16.6611V28.5098C10.6195 28.5337 8.59532 28.725 8.59532 28.9641C8.59574 28.971 8.5975 28.9777 8.60049 28.9839C8.60348 28.99 8.60764 28.9955 8.61272 29H18.7392C18.7443 28.9955 18.7484 28.99 18.7514 28.9839C18.7544 28.9777 18.7562 28.971 18.7566 28.9641C18.7566 28.725 16.7325 28.5337 14.1457 28.5098V16.6671L23.872 4.74067H8.76932L6.3566 1.10596C6.14465 0.787474 5.86073 0.526909 5.52932 0.346734C5.1979 0.166558 4.82894 0.0721802 4.45426 0.0717387H0V0.956505H4.44846C4.68438 0.955605 4.91697 1.01392 5.12614 1.1264C5.33531 1.23889 5.51477 1.40217 5.64902 1.60214ZM21.9117 5.67924L20.2645 7.69986H10.7413L9.3957 5.67924H21.9117ZM8.36333 5.67924L9.70889 7.69986H8.17194L14.2211 15.1187L13.6818 15.7823L5.44602 5.67924H8.36333Z" fill="#163152"/>
<path d="M24.7652 7.83735C25.4244 7.83736 26.0692 7.63841 26.62 7.26505C27.1708 6.8917 27.6034 6.36028 27.8646 5.73639C28.1257 5.1125 28.2039 4.42345 28.0895 3.75428C27.9751 3.0851 27.6731 2.46511 27.2208 1.9708C26.7685 1.4765 26.1857 1.12953 25.5443 0.972714C24.9028 0.815899 24.2309 0.856104 23.6114 1.08837C22.9919 1.32063 22.4519 1.73478 22.0582 2.27971C21.6644 2.82464 21.434 3.47649 21.3955 4.15481H20.5371C20.5769 3.30154 20.8587 2.47905 21.3477 1.78931C21.8366 1.09958 22.5112 0.572925 23.2878 0.274656C24.0645 -0.023614 24.9089 -0.0803864 25.7166 0.111377C26.5242 0.30314 27.2594 0.735006 27.8312 1.35343C28.4029 1.97186 28.786 2.74965 28.9329 3.59037C29.0799 4.4311 28.9842 5.29779 28.6577 6.08298C28.3313 6.86818 27.7885 7.53736 27.0965 8.00756C26.4046 8.47775 25.594 8.72828 24.7652 8.7281C23.8125 8.72997 22.8878 8.39677 22.1437 7.78355L22.6947 7.10802C23.2879 7.57995 24.0159 7.83638 24.7652 7.83735Z" fill="#163152"/>
</svg>
