<svg width="37" height="23" viewBox="0 0 37 23" fill="none" xmlns="http://www.w3.org/2000/svg">
<path d="M34.0177 12.8924C34.0738 12.781 34.1031 12.6584 34.1034 12.534V11.3417C34.1028 10.9482 33.944 10.571 33.6618 10.2927C33.3796 10.0145 32.9971 9.85789 32.598 9.85728H31.6057V3.20043C31.6041 2.61721 31.3683 2.05833 30.95 1.646C30.5317 1.23366 29.9649 1.00141 29.3735 1L7.69136 1C7.0995 1.0008 6.53207 1.23279 6.11327 1.6452C5.69447 2.0576 5.45842 2.61681 5.45679 3.20043V9.85728H4.40123C4.0021 9.85769 3.61944 10.0142 3.33721 10.2925C3.05498 10.5708 2.89624 10.9482 2.89583 11.3417V12.534C2.89617 12.6586 2.92547 12.7815 2.98148 12.8932C2.41316 13.0455 1.91135 13.3778 1.55332 13.8389C1.19528 14.3 1.00087 14.8644 1 15.4451V18.9976C1.00041 19.3111 1.12687 19.6116 1.35165 19.8332C1.57643 20.0549 1.88119 20.1796 2.19907 20.18H4.68673V21.2878C4.68714 21.4767 4.76346 21.6577 4.89899 21.7912C5.03451 21.9247 5.21817 21.9998 5.40972 22H6.05787C6.24942 21.9998 6.43309 21.9247 6.56861 21.7912C6.70413 21.6577 6.78046 21.4767 6.78086 21.2878V20.18H31.0494V21.2878C31.0498 21.4767 31.1261 21.6577 31.2616 21.7912C31.3972 21.9247 31.5808 21.9998 31.7724 22H32.4205C32.6121 21.9998 32.7957 21.9247 32.9313 21.7912C33.0668 21.6577 33.1431 21.4767 33.1435 21.2878V20.18H34.8009C35.1188 20.1796 35.4236 20.0549 35.6483 19.8332C35.8731 19.6116 35.9996 19.3111 36 18.9976V15.4451C35.9991 14.8642 35.8046 14.2996 35.4464 13.8383C35.0883 13.3771 34.5863 13.0447 34.0177 12.8924ZM6.01543 3.20043C6.01584 2.76279 6.19212 2.34313 6.50566 2.03338C6.8192 1.72363 7.24445 1.54903 7.68827 1.54783H29.3742C29.8185 1.54843 30.2444 1.72274 30.5586 2.03253C30.8728 2.34232 31.0495 2.76232 31.0502 3.20043V9.78804H27.7593V9.06522C27.7591 8.85433 27.6741 8.65213 27.5229 8.50294C27.3718 8.35375 27.1668 8.26975 26.9529 8.26935H21.159C20.945 8.26955 20.7398 8.35346 20.5885 8.50268C20.4372 8.65189 20.3521 8.8542 20.3519 9.06522V9.79185H16.7099V9.06522C16.7097 8.85433 16.6247 8.65213 16.4735 8.50294C16.3224 8.35375 16.1174 8.26975 15.9035 8.26935H10.1096C9.89557 8.26955 9.6904 8.35346 9.53909 8.50268C9.38777 8.65189 9.30267 8.8542 9.30247 9.06522V9.79185H6.01543V3.20043ZM27.2037 9.06522V9.79185H20.9074V9.06522C20.9074 8.99943 20.9339 8.93634 20.9811 8.88982C21.0283 8.84331 21.0922 8.81717 21.159 8.81717H26.9529C27.0195 8.81737 27.0833 8.8436 27.1303 8.89009C27.1773 8.93659 27.2037 8.99956 27.2037 9.06522ZM16.1543 9.06522V9.79185H9.85802V9.06522C9.85802 8.99943 9.88453 8.93634 9.9317 8.88982C9.97887 8.84331 10.0429 8.81717 10.1096 8.81717H15.9035C15.9701 8.81737 16.0339 8.8436 16.0809 8.89009C16.1279 8.93659 16.1543 8.99956 16.1543 9.06522ZM3.45139 11.3478C3.45159 11.0995 3.55173 10.8614 3.72982 10.6858C3.9079 10.5101 4.14938 10.4114 4.40123 10.4112H32.598C32.8498 10.4116 33.0911 10.5104 33.2692 10.686C33.4472 10.8615 33.5474 11.0995 33.5478 11.3478V12.5401C33.5478 12.6107 33.5194 12.6785 33.4687 12.7284C33.4181 12.7784 33.3494 12.8064 33.2778 12.8064H3.72531C3.65368 12.8064 3.58499 12.7784 3.53435 12.7284C3.4837 12.6785 3.45525 12.6107 3.45525 12.5401L3.45139 11.3478ZM6.22917 21.2932C6.22917 21.3148 6.22484 21.3363 6.21642 21.3563C6.20801 21.3764 6.19567 21.3946 6.18012 21.4099C6.16458 21.4252 6.14612 21.4374 6.1258 21.4457C6.10549 21.454 6.08372 21.4583 6.06173 21.4583H5.41358C5.39087 21.4586 5.36833 21.4543 5.34733 21.4458C5.32633 21.4373 5.30731 21.4246 5.29143 21.4086C5.27555 21.3926 5.26314 21.3736 5.25496 21.3527C5.24677 21.3318 5.24299 21.3094 5.24383 21.2871V20.2287H6.22531L6.22917 21.2932ZM32.5918 21.2932C32.5918 21.3148 32.5875 21.3363 32.5791 21.3563C32.5707 21.3764 32.5583 21.3946 32.5428 21.4099C32.5272 21.4252 32.5088 21.4374 32.4885 21.4457C32.4681 21.454 32.4464 21.4583 32.4244 21.4583H31.7762C31.732 21.4581 31.6896 21.4406 31.6583 21.4096C31.6271 21.3787 31.6096 21.3368 31.6096 21.2932V20.2287H32.5918V21.2871V21.2932ZM35.4468 19.0037C35.4466 19.1719 35.3787 19.3332 35.258 19.4522C35.1374 19.5711 34.9739 19.6381 34.8032 19.6383H2.19907C2.02846 19.6381 1.8649 19.5711 1.74426 19.4522C1.62362 19.3332 1.55576 19.1719 1.55556 19.0037V15.4451C1.55617 14.8893 1.78033 14.3565 2.17886 13.9635C2.57738 13.5706 3.11773 13.3495 3.68133 13.3489H33.3179C33.8816 13.3493 34.4222 13.5703 34.8209 13.9633C35.2196 14.3563 35.4438 14.8892 35.4444 15.4451V18.9976L35.4468 19.0037Z" fill="#163152"/>
<path d="M16.1543 9.06522V9.79185H9.85802V9.06522C9.85802 8.99943 9.88453 8.93634 9.9317 8.88982C9.97887 8.84331 10.0429 8.81717 10.1096 8.81717H15.9035C15.9701 8.81737 16.0339 8.8436 16.0809 8.89009C16.1279 8.93659 16.1543 8.99956 16.1543 9.06522Z" fill="#163152"/>
<path d="M27.2037 9.06522V9.79185H20.9074V9.06522C20.9074 8.99943 20.9339 8.93634 20.9811 8.88982C21.0283 8.84331 21.0922 8.81717 21.159 8.81717H26.9529C27.0195 8.81737 27.0833 8.8436 27.1303 8.89009C27.1773 8.93659 27.2037 8.99956 27.2037 9.06522Z" fill="#163152"/>
<path d="M32.5918 21.2932C32.5918 21.3148 32.5875 21.3363 32.5791 21.3563C32.5707 21.3764 32.5583 21.3946 32.5428 21.4099C32.5272 21.4252 32.5088 21.4374 32.4885 21.4457C32.4681 21.454 32.4464 21.4583 32.4244 21.4583H31.7762C31.732 21.4581 31.6896 21.4406 31.6583 21.4096C31.6271 21.3787 31.6096 21.3368 31.6096 21.2932V20.2287H32.5918V21.2871V21.2932Z" fill="#163152"/>
<path d="M6.22917 21.2932C6.22917 21.3148 6.22484 21.3363 6.21642 21.3563C6.20801 21.3764 6.19567 21.3946 6.18012 21.4099C6.16458 21.4252 6.14612 21.4374 6.1258 21.4457C6.10549 21.454 6.08372 21.4583 6.06173 21.4583H5.41358C5.39087 21.4586 5.36833 21.4543 5.34733 21.4458C5.32633 21.4373 5.30731 21.4246 5.29143 21.4086C5.27555 21.3926 5.26314 21.3736 5.25496 21.3527C5.24677 21.3318 5.24299 21.3094 5.24383 21.2871V20.2287H6.22531L6.22917 21.2932Z" fill="#163152"/>
<path d="M34.0177 12.8924C34.0738 12.781 34.1031 12.6584 34.1034 12.534V11.3417C34.1028 10.9482 33.944 10.571 33.6618 10.2927C33.3796 10.0145 32.9971 9.85789 32.598 9.85728H31.6057V3.20043C31.6041 2.61721 31.3683 2.05833 30.95 1.646C30.5317 1.23366 29.9649 1.00141 29.3735 1L7.69136 1C7.0995 1.0008 6.53207 1.23279 6.11327 1.6452C5.69447 2.0576 5.45842 2.61681 5.45679 3.20043V9.85728H4.40123C4.0021 9.85769 3.61944 10.0142 3.33721 10.2925C3.05498 10.5708 2.89624 10.9482 2.89583 11.3417V12.534C2.89617 12.6586 2.92547 12.7815 2.98148 12.8932C2.41316 13.0455 1.91135 13.3778 1.55332 13.8389C1.19528 14.3 1.00087 14.8644 1 15.4451V18.9976C1.00041 19.3111 1.12687 19.6116 1.35165 19.8332C1.57643 20.0549 1.88119 20.1796 2.19907 20.18H4.68673V21.2878C4.68714 21.4767 4.76346 21.6577 4.89899 21.7912C5.03451 21.9247 5.21817 21.9998 5.40972 22H6.05787C6.24942 21.9998 6.43309 21.9247 6.56861 21.7912C6.70413 21.6577 6.78046 21.4767 6.78086 21.2878V20.18H31.0494V21.2878C31.0498 21.4767 31.1261 21.6577 31.2616 21.7912C31.3972 21.9247 31.5808 21.9998 31.7724 22H32.4205C32.6121 21.9998 32.7957 21.9247 32.9313 21.7912C33.0668 21.6577 33.1431 21.4767 33.1435 21.2878V20.18H34.8009C35.1188 20.1796 35.4236 20.0549 35.6483 19.8332C35.8731 19.6116 35.9996 19.3111 36 18.9976V15.4451C35.9991 14.8642 35.8046 14.2996 35.4464 13.8383C35.0883 13.3771 34.5863 13.0447 34.0177 12.8924ZM6.01543 3.20043C6.01584 2.76279 6.19212 2.34313 6.50566 2.03338C6.8192 1.72363 7.24445 1.54903 7.68827 1.54783H29.3742C29.8185 1.54843 30.2444 1.72274 30.5586 2.03253C30.8728 2.34232 31.0495 2.76232 31.0502 3.20043V9.78804H27.7593V9.06522C27.7591 8.85433 27.6741 8.65213 27.5229 8.50294C27.3718 8.35375 27.1668 8.26975 26.9529 8.26935H21.159C20.945 8.26955 20.7398 8.35346 20.5885 8.50268C20.4372 8.65189 20.3521 8.8542 20.3519 9.06522V9.79185H16.7099V9.06522C16.7097 8.85433 16.6247 8.65213 16.4735 8.50294C16.3224 8.35375 16.1174 8.26975 15.9035 8.26935H10.1096C9.89557 8.26955 9.6904 8.35346 9.53909 8.50268C9.38777 8.65189 9.30267 8.8542 9.30247 9.06522V9.79185H6.01543V3.20043ZM27.2037 9.06522V9.79185H20.9074V9.06522C20.9074 8.99943 20.9339 8.93634 20.9811 8.88982C21.0283 8.84331 21.0922 8.81717 21.159 8.81717H26.9529C27.0195 8.81737 27.0833 8.8436 27.1303 8.89009C27.1773 8.93659 27.2037 8.99956 27.2037 9.06522ZM16.1543 9.06522V9.79185H9.85802V9.06522C9.85802 8.99943 9.88453 8.93634 9.9317 8.88982C9.97887 8.84331 10.0429 8.81717 10.1096 8.81717H15.9035C15.9701 8.81737 16.0339 8.8436 16.0809 8.89009C16.1279 8.93659 16.1543 8.99956 16.1543 9.06522ZM3.45139 11.3478C3.45159 11.0995 3.55173 10.8614 3.72982 10.6858C3.9079 10.5101 4.14938 10.4114 4.40123 10.4112H32.598C32.8498 10.4116 33.0911 10.5104 33.2692 10.686C33.4472 10.8615 33.5474 11.0995 33.5478 11.3478V12.5401C33.5478 12.6107 33.5194 12.6785 33.4687 12.7284C33.4181 12.7784 33.3494 12.8064 33.2778 12.8064H3.72531C3.65368 12.8064 3.58499 12.7784 3.53435 12.7284C3.4837 12.6785 3.45525 12.6107 3.45525 12.5401L3.45139 11.3478ZM6.22917 21.2932C6.22917 21.3148 6.22484 21.3363 6.21642 21.3563C6.20801 21.3764 6.19567 21.3946 6.18012 21.4099C6.16458 21.4252 6.14612 21.4374 6.1258 21.4457C6.10549 21.454 6.08372 21.4583 6.06173 21.4583H5.41358C5.39087 21.4586 5.36833 21.4543 5.34733 21.4458C5.32633 21.4373 5.30731 21.4246 5.29143 21.4086C5.27555 21.3926 5.26314 21.3736 5.25496 21.3527C5.24677 21.3318 5.24299 21.3094 5.24383 21.2871V20.2287H6.22531L6.22917 21.2932ZM32.5918 21.2932C32.5918 21.3148 32.5875 21.3363 32.5791 21.3563C32.5707 21.3764 32.5583 21.3946 32.5428 21.4099C32.5272 21.4252 32.5088 21.4374 32.4885 21.4457C32.4681 21.454 32.4464 21.4583 32.4244 21.4583H31.7762C31.732 21.4581 31.6896 21.4406 31.6583 21.4096C31.6271 21.3787 31.6096 21.3368 31.6096 21.2932V20.2287H32.5918V21.2871V21.2932ZM35.4468 19.0037C35.4466 19.1719 35.3787 19.3332 35.258 19.4522C35.1374 19.5711 34.9739 19.6381 34.8032 19.6383H2.19907C2.02846 19.6381 1.8649 19.5711 1.74426 19.4522C1.62362 19.3332 1.55576 19.1719 1.55556 19.0037V15.4451C1.55617 14.8893 1.78033 14.3565 2.17886 13.9635C2.57738 13.5706 3.11773 13.3495 3.68133 13.3489H33.3179C33.8816 13.3493 34.4222 13.5703 34.8209 13.9633C35.2196 14.3563 35.4438 14.8892 35.4444 15.4451V18.9976L35.4468 19.0037Z" stroke="#163152"/>
<path d="M16.1543 9.06522V9.79185H9.85802V9.06522C9.85802 8.99943 9.88453 8.93634 9.9317 8.88982C9.97887 8.84331 10.0429 8.81717 10.1096 8.81717H15.9035C15.9701 8.81737 16.0339 8.8436 16.0809 8.89009C16.1279 8.93659 16.1543 8.99956 16.1543 9.06522Z" stroke="#163152"/>
<path d="M27.2037 9.06522V9.79185H20.9074V9.06522C20.9074 8.99943 20.9339 8.93634 20.9811 8.88982C21.0283 8.84331 21.0922 8.81717 21.159 8.81717H26.9529C27.0195 8.81737 27.0833 8.8436 27.1303 8.89009C27.1773 8.93659 27.2037 8.99956 27.2037 9.06522Z" stroke="#163152"/>
<path d="M32.5918 21.2932C32.5918 21.3148 32.5875 21.3363 32.5791 21.3563C32.5707 21.3764 32.5583 21.3946 32.5428 21.4099C32.5272 21.4252 32.5088 21.4374 32.4885 21.4457C32.4681 21.454 32.4464 21.4583 32.4244 21.4583H31.7762C31.732 21.4581 31.6896 21.4406 31.6583 21.4096C31.6271 21.3787 31.6096 21.3368 31.6096 21.2932V20.2287H32.5918V21.2871V21.2932Z" stroke="#163152"/>
<path d="M6.22917 21.2932C6.22917 21.3148 6.22484 21.3363 6.21642 21.3563C6.20801 21.3764 6.19567 21.3946 6.18012 21.4099C6.16458 21.4252 6.14612 21.4374 6.1258 21.4457C6.10549 21.454 6.08372 21.4583 6.06173 21.4583H5.41358C5.39087 21.4586 5.36833 21.4543 5.34733 21.4458C5.32633 21.4373 5.30731 21.4246 5.29143 21.4086C5.27555 21.3926 5.26314 21.3736 5.25496 21.3527C5.24677 21.3318 5.24299 21.3094 5.24383 21.2871V20.2287H6.22531L6.22917 21.2932Z" stroke="#163152"/>
</svg>
