<svg width="34" height="29" viewBox="0 0 34 29" fill="none" xmlns="http://www.w3.org/2000/svg">
<path d="M33.8655 14.2966C33.6772 14.0951 33.3615 14.0845 33.1601 14.2727L31.1371 16.1642L21.8673 7.01391L28.4816 0.86345C28.6826 0.674895 28.6929 0.358952 28.5045 0.157819C28.3161 -0.0433145 28.0002 -0.0535642 27.7992 0.134923L20.8062 6.64039C20.6025 6.83134 20.5982 7.16386 20.7969 7.36007L21.6169 8.16933L21.3552 8.40054L15.8746 7.92839C15.79 7.9212 15.7021 7.93578 15.625 7.97145L11.2825 9.95004C11.2699 9.94678 11.2573 9.94359 11.2441 9.94126L8.74631 9.50025L8.94829 8.98371C9.04814 8.72827 8.92341 8.44008 8.66887 8.33831L0.684522 5.14321C0.428524 5.04064 0.138199 5.1653 0.0358798 5.42135C-0.0665058 5.67732 0.0579669 5.96791 0.313898 6.07027L7.83834 9.08142L3.40416 20.4179L0.665761 19.4476C0.405905 19.3556 0.120769 19.4916 0.0287614 19.7516C-0.063246 20.0115 0.0728025 20.2968 0.332592 20.3888L3.52631 21.5204C3.77698 21.6093 4.06079 21.4793 4.15758 21.2317L4.89863 19.3371L6.84037 20.4257L6.62621 20.773C6.01942 21.7569 6.32578 23.0513 7.30932 23.6584C7.82943 23.9795 8.47508 24.0556 9.05626 23.8674C9.14947 24.4733 9.50539 25.014 10.0273 25.3361C10.5474 25.6572 11.193 25.7334 11.7742 25.5451C11.8675 26.1511 12.2233 26.6917 12.7452 27.0139C13.2669 27.336 13.9092 27.4118 14.4923 27.2235C14.5857 27.8291 14.9414 28.3696 15.4632 28.6916C16.2215 29.1597 17.2253 29.0898 17.9089 28.5166C18.0812 28.3721 18.2295 28.1997 18.3475 28.0082L18.6879 27.4564L18.9682 27.6286C19.7275 28.0954 20.731 28.0235 21.4135 27.449C21.5856 27.3042 21.7335 27.1315 21.8512 26.9399C22.0851 26.559 22.1819 26.1321 22.1564 25.7165C22.3148 25.7547 22.477 25.7751 22.6407 25.7751C23.3654 25.7751 24.051 25.3928 24.4303 24.7753C24.6587 24.4032 24.7631 23.9791 24.7366 23.5521C24.8947 23.5901 25.0566 23.6104 25.2197 23.6104C25.9444 23.6104 26.6301 23.2281 27.0093 22.6105C27.2379 22.2382 27.3422 21.8138 27.3156 21.3865C27.4754 21.4246 27.6376 21.4445 27.7992 21.4445C28.5039 21.4445 29.1931 21.0895 29.5883 20.4459C30.1933 19.4608 29.8845 18.167 28.8998 17.5618L28.5579 17.3516L29.7048 16.1528L30.7775 17.2117C30.9657 17.3973 31.2757 17.4014 31.4687 17.2211L33.8418 15.0023C34.0431 14.814 34.0537 14.4981 33.8655 14.2966ZM9.34419 22.4507C9.02626 22.966 8.34854 23.1266 7.83335 22.8087C7.31817 22.4907 7.1577 21.8127 7.4755 21.2973L10.2706 16.7654C10.5825 16.2595 11.2519 16.0941 11.7631 16.3962C12.292 16.7091 12.4379 17.4345 12.1204 17.9494L9.34419 22.4507ZM12.062 24.1284C11.7442 24.6438 11.0665 24.8044 10.5513 24.4864C10.0424 24.1722 9.87894 23.485 10.1935 22.975L12.4295 19.3495C12.7414 18.8437 13.4108 18.6783 13.9219 18.9804C14.4508 19.2932 14.5968 20.0186 14.2792 20.5335L12.062 24.1284ZM14.7802 25.8062C14.6261 26.0558 14.3841 26.2306 14.0988 26.2982C13.8134 26.3659 13.5188 26.3182 13.2693 26.1642C12.7604 25.85 12.597 25.1626 12.9115 24.6528L14.5885 21.9336C14.9005 21.4278 15.57 21.2624 16.081 21.5645C16.6099 21.8773 16.7559 22.6027 16.4383 23.1176L14.7802 25.8062ZM18.5973 25.7019L17.4981 27.484C17.184 27.9931 16.4971 28.1565 15.9873 27.8419C15.4784 27.5278 15.315 26.8404 15.6295 26.3305L16.7475 24.5178C17.0594 24.0121 17.7289 23.8464 18.24 24.1487C18.7689 24.4615 18.9148 25.1869 18.5973 25.7019ZM27.6878 16.8167L25.2142 15.2961C24.9848 15.1551 24.6688 15.2306 24.5279 15.4601C24.3869 15.6896 24.4624 16.0058 24.6918 16.1468L28.3772 18.4123C28.8929 18.7294 29.0547 19.4071 28.7379 19.9231C28.4209 20.439 27.7435 20.6009 27.2277 20.2839L23.2751 17.854C23.0403 17.7096 22.733 17.7831 22.5887 18.018C22.4445 18.2529 22.5179 18.5604 22.7527 18.7047L25.7983 20.5769C26.3078 20.8901 26.4725 21.5772 26.1589 22.0877C25.8458 22.5974 25.1591 22.7621 24.6488 22.4485L21.8887 20.7518C21.6539 20.6074 21.3466 20.6809 21.2024 20.9158C21.0581 21.1506 21.1315 21.4581 21.3663 21.6024L23.2193 22.7415C23.7288 23.0548 23.8935 23.7417 23.58 24.2523C23.2669 24.762 22.5801 24.9268 22.0699 24.6131C22.0699 24.6131 20.4402 23.6123 20.425 23.605C20.1971 23.4949 19.9185 23.5732 19.7833 23.7934C19.6391 24.0283 19.7125 24.3357 19.9473 24.48L20.6404 24.9061C21.1561 25.2232 21.3179 25.9009 21.001 26.4169C20.6879 26.9266 20.0011 27.0913 19.4909 26.7777L19.2123 26.6064L19.4469 26.2259C19.7469 25.7395 19.8399 25.1405 19.7022 24.5825C19.5664 24.0318 19.2275 23.5724 18.7482 23.2889C18.3742 23.0678 17.9558 22.9783 17.5483 23.0058C17.6249 22.677 17.6253 22.3305 17.5433 21.9983C17.4074 21.4476 17.0686 20.9882 16.5892 20.7048C16.2152 20.4836 15.7968 20.394 15.3894 20.4215C15.5952 19.5371 15.2164 18.5856 14.4303 18.1206C14.0563 17.8995 13.6379 17.8099 13.2305 17.8373C13.4362 16.9529 13.0574 16.0014 12.2713 15.5364C11.2954 14.9593 10.0171 15.2754 9.42169 16.2407L7.36533 19.5749L5.26586 18.3983L8.37522 10.4487L10.0682 10.7476C9.58668 11.3459 9.4513 12.1883 9.79059 12.9338C10.1417 13.7051 10.9045 14.1615 11.7011 14.1614C11.9912 14.1614 12.2859 14.1009 12.5667 13.9729L15.4891 12.6413C15.7366 12.5285 15.8492 12.2276 15.7364 11.98C15.6237 11.7325 15.3229 11.6198 15.0755 11.7326L12.153 13.0642C11.6022 13.3153 10.9498 13.0711 10.6988 12.5199C10.4479 11.9688 10.692 11.3162 11.2429 11.0651L15.9194 8.93433L21.4822 9.4136C21.4965 9.41486 21.5109 9.41546 21.5251 9.41546C21.6462 9.41546 21.7637 9.37133 21.8553 9.29053L22.3289 8.87223L28.994 15.4513L27.6878 16.8167Z" fill="#163152"/>
<path d="M23.3279 14.1365L18.7034 11.2938C18.6471 11.2591 18.5823 11.2356 18.5169 11.2253L17.069 10.9698C16.8012 10.9224 16.5382 11.1067 16.4909 11.3747C16.4437 11.6427 16.6278 11.9058 16.8956 11.9531L18.2619 12.1943L22.8055 14.9873C23.0273 15.1237 23.3315 15.0575 23.4788 14.8432C23.6367 14.6132 23.5654 14.2826 23.3279 14.1365Z" fill="#163152"/>
</svg>
