<svg width="60" height="60" viewBox="0 0 60 60" fill="none" xmlns="http://www.w3.org/2000/svg">
<circle cx="30" cy="30" r="29.5" stroke="#00C6BD"/>
<path d="M46.8655 29.2966C46.6772 29.0951 46.3615 29.0845 46.1601 29.2727L44.1371 31.1642L34.8673 22.0139L41.4816 15.8634C41.6826 15.6749 41.6929 15.359 41.5045 15.1578C41.3161 14.9567 41.0002 14.9464 40.7992 15.1349L33.8062 21.6404C33.6025 21.8313 33.5982 22.1639 33.7969 22.3601L34.6169 23.1693L34.3552 23.4005L28.8746 22.9284C28.79 22.9212 28.7021 22.9358 28.625 22.9715L24.2825 24.95C24.2699 24.9468 24.2573 24.9436 24.2441 24.9413L21.7463 24.5003L21.9483 23.9837C22.0481 23.7283 21.9234 23.4401 21.6689 23.3383L13.6845 20.1432C13.4285 20.0406 13.1382 20.1653 13.0359 20.4213C12.9335 20.6773 13.058 20.9679 13.3139 21.0703L20.8383 24.0814L16.4042 35.4179L13.6658 34.4476C13.4059 34.3556 13.1208 34.4916 13.0288 34.7516C12.9368 35.0115 13.0728 35.2968 13.3326 35.3888L16.5263 36.5204C16.777 36.6093 17.0608 36.4793 17.1576 36.2317L17.8986 34.3371L19.8404 35.4257L19.6262 35.773C19.0194 36.7569 19.3258 38.0513 20.3093 38.6584C20.8294 38.9795 21.4751 39.0556 22.0563 38.8674C22.1495 39.4733 22.5054 40.014 23.0273 40.3361C23.5474 40.6572 24.193 40.7334 24.7742 40.5451C24.8675 41.1511 25.2233 41.6917 25.7452 42.0139C26.2669 42.336 26.9092 42.4118 27.4923 42.2235C27.5857 42.8291 27.9414 43.3696 28.4632 43.6916C29.2215 44.1597 30.2253 44.0898 30.9089 43.5166C31.0812 43.3721 31.2295 43.1997 31.3475 43.0082L31.6879 42.4564L31.9682 42.6286C32.7275 43.0954 33.731 43.0235 34.4135 42.449C34.5856 42.3042 34.7335 42.1315 34.8512 41.9399C35.0851 41.559 35.1819 41.1321 35.1564 40.7165C35.3148 40.7547 35.477 40.7751 35.6407 40.7751C36.3654 40.7751 37.051 40.3928 37.4303 39.7753C37.6587 39.4032 37.7631 38.9791 37.7366 38.5521C37.8947 38.5901 38.0566 38.6104 38.2197 38.6104C38.9444 38.6104 39.6301 38.2281 40.0093 37.6105C40.2379 37.2382 40.3422 36.8138 40.3156 36.3865C40.4754 36.4246 40.6376 36.4445 40.7992 36.4445C41.5039 36.4445 42.1931 36.0895 42.5883 35.4459C43.1933 34.4608 42.8845 33.167 41.8998 32.5618L41.5579 32.3516L42.7048 31.1528L43.7775 32.2117C43.9657 32.3973 44.2757 32.4014 44.4687 32.2211L46.8418 30.0023C47.0431 29.814 47.0537 29.4981 46.8655 29.2966ZM22.3442 37.4507C22.0263 37.966 21.3485 38.1266 20.8334 37.8087C20.3182 37.4907 20.1577 36.8127 20.4755 36.2973L23.2706 31.7654C23.5825 31.2595 24.2519 31.0941 24.7631 31.3962C25.292 31.7091 25.4379 32.4345 25.1204 32.9494L22.3442 37.4507ZM25.062 39.1284C24.7442 39.6438 24.0665 39.8044 23.5513 39.4864C23.0424 39.1722 22.8789 38.485 23.1935 37.975L25.4295 34.3495C25.7414 33.8437 26.4108 33.6783 26.9219 33.9804C27.4508 34.2932 27.5968 35.0186 27.2792 35.5335L25.062 39.1284ZM27.7802 40.8062C27.6261 41.0558 27.3841 41.2306 27.0988 41.2982C26.8134 41.3659 26.5188 41.3182 26.2693 41.1642C25.7604 40.85 25.597 40.1626 25.9115 39.6528L27.5885 36.9336C27.9005 36.4278 28.57 36.2624 29.081 36.5645C29.6099 36.8773 29.7559 37.6027 29.4383 38.1176L27.7802 40.8062ZM31.5973 40.7019L30.4981 42.484C30.184 42.9931 29.4971 43.1565 28.9873 42.8419C28.4784 42.5278 28.315 41.8404 28.6295 41.3305L29.7475 39.5178C30.0594 39.0121 30.7289 38.8464 31.24 39.1487C31.7689 39.4615 31.9148 40.1869 31.5973 40.7019ZM40.6878 31.8167L38.2142 30.2961C37.9848 30.1551 37.6688 30.2306 37.5279 30.4601C37.3869 30.6896 37.4624 31.0058 37.6918 31.1468L41.3772 33.4123C41.8929 33.7294 42.0547 34.4071 41.7379 34.9231C41.4209 35.439 40.7435 35.6009 40.2277 35.2839L36.2751 32.854C36.0403 32.7096 35.733 32.7831 35.5887 33.018C35.4445 33.2529 35.5179 33.5604 35.7527 33.7047L38.7983 35.5769C39.3078 35.8901 39.4725 36.5772 39.1589 37.0877C38.8458 37.5974 38.1591 37.7621 37.6488 37.4485L34.8887 35.7518C34.6539 35.6074 34.3466 35.6809 34.2024 35.9158C34.0581 36.1506 34.1315 36.4581 34.3663 36.6024L36.2193 37.7415C36.7288 38.0548 36.8935 38.7417 36.58 39.2523C36.2669 39.762 35.5801 39.9268 35.0699 39.6131C35.0699 39.6131 33.4402 38.6123 33.425 38.605C33.1971 38.4949 32.9185 38.5732 32.7833 38.7934C32.6391 39.0283 32.7125 39.3357 32.9473 39.48L33.6404 39.9061C34.1561 40.2232 34.3179 40.9009 34.001 41.4169C33.6879 41.9266 33.0011 42.0913 32.4909 41.7777L32.2123 41.6064L32.4469 41.2259C32.7469 40.7395 32.8399 40.1405 32.7022 39.5825C32.5664 39.0318 32.2275 38.5724 31.7482 38.2889C31.3742 38.0678 30.9558 37.9783 30.5483 38.0058C30.6249 37.677 30.6253 37.3305 30.5433 36.9983C30.4074 36.4476 30.0686 35.9882 29.5892 35.7048C29.2152 35.4836 28.7968 35.394 28.3894 35.4215C28.5952 34.5371 28.2164 33.5856 27.4303 33.1206C27.0563 32.8995 26.6379 32.8099 26.2305 32.8373C26.4362 31.9529 26.0574 31.0014 25.2713 30.5364C24.2954 29.9593 23.0171 30.2754 22.4217 31.2407L20.3653 34.5749L18.2659 33.3983L21.3752 25.4487L23.0682 25.7476C22.5867 26.3459 22.4513 27.1883 22.7906 27.9338C23.1417 28.7051 23.9045 29.1615 24.7011 29.1614C24.9912 29.1614 25.2859 29.1009 25.5667 28.9729L28.4891 27.6413C28.7366 27.5285 28.8492 27.2276 28.7364 26.98C28.6237 26.7325 28.3229 26.6198 28.0755 26.7326L25.153 28.0642C24.6022 28.3153 23.9498 28.0711 23.6988 27.5199C23.4479 26.9688 23.692 26.3162 24.2429 26.0651L28.9194 23.9343L34.4822 24.4136C34.4965 24.4149 34.5109 24.4155 34.5251 24.4155C34.6462 24.4155 34.7637 24.3713 34.8553 24.2905L35.3289 23.8722L41.994 30.4513L40.6878 31.8167Z" fill="#163152"/>
<path d="M36.3279 29.1365L31.7034 26.2938C31.6471 26.2591 31.5823 26.2356 31.5169 26.2253L30.069 25.9698C29.8012 25.9224 29.5382 26.1067 29.4909 26.3747C29.4437 26.6427 29.6278 26.9058 29.8956 26.9531L31.2619 27.1943L35.8055 29.9873C36.0273 30.1237 36.3315 30.0575 36.4788 29.8432C36.6367 29.6132 36.5654 29.2826 36.3279 29.1365Z" fill="#163152"/>
</svg>
