<svg width="32" height="32" viewBox="0 0 32 32" fill="none" xmlns="http://www.w3.org/2000/svg">
<circle cx="16" cy="16" r="16" fill="#00C6BD"/>
<path d="M16.647 13.6252L17.5108 14.4891C17.9076 14.8859 18.2224 15.357 18.4371 15.8755C18.6519 16.394 18.7624 16.9497 18.7624 17.5109C18.7624 18.0722 18.6519 18.6279 18.4371 19.1464C18.2224 19.6649 17.9076 20.136 17.5108 20.5328L17.2947 20.7483C16.4933 21.5498 15.4064 22 14.2731 22C13.1398 22 12.0529 21.5498 11.2516 20.7483C10.4502 19.9469 10 18.8599 10 17.7264C10 16.593 10.4502 15.506 11.2516 14.7046L12.1153 15.5684C11.8299 15.8514 11.6031 16.188 11.4481 16.5588C11.2931 16.9297 11.2128 17.3275 11.2119 17.7295C11.211 18.1315 11.2895 18.5297 11.443 18.9012C11.5964 19.2727 11.8216 19.6103 12.1058 19.8946C12.39 20.1788 12.7276 20.4041 13.0991 20.5575C13.4706 20.7109 13.8687 20.7895 14.2707 20.7886C14.6726 20.7877 15.0704 20.7074 15.4412 20.5524C15.812 20.3973 16.1486 20.1706 16.4316 19.8851L16.6477 19.669C17.2198 19.0966 17.5413 18.3203 17.5413 17.5109C17.5413 16.7015 17.2198 15.9253 16.6477 15.3529L15.7839 14.4891L16.6477 13.6258L16.647 13.6252ZM20.7478 17.2948L19.8847 16.4316C20.1701 16.1486 20.3969 15.812 20.5519 15.4412C20.7069 15.0703 20.7872 14.6725 20.7881 14.2705C20.789 13.8685 20.7105 13.4703 20.557 13.0988C20.4036 12.7273 20.1784 12.3897 19.8942 12.1054C19.61 11.8212 19.2724 11.5959 18.9009 11.4425C18.5294 11.2891 18.1313 11.2105 17.7293 11.2114C17.3274 11.2123 16.9296 11.2926 16.5588 11.4476C16.1879 11.6027 15.8514 11.8294 15.5684 12.1149L15.3523 12.331C14.7802 12.9034 14.4587 13.6797 14.4587 14.4891C14.4587 15.2985 14.7802 16.0747 15.3523 16.6471L16.2161 17.5109L15.3523 18.3742L14.4892 17.5109C14.0924 17.1141 13.7776 16.643 13.5629 16.1245C13.3481 15.606 13.2376 15.0503 13.2376 14.4891C13.2376 13.9278 13.3481 13.3721 13.5629 12.8536C13.7776 12.3351 14.0924 11.864 14.4892 11.4672L14.7053 11.2517C15.5067 10.4502 16.5936 10 17.7269 10C18.8602 10 19.9471 10.4502 20.7484 11.2517C21.5498 12.0531 22 13.1401 22 14.2736C22 15.407 21.5498 16.494 20.7484 17.2954L20.7478 17.2948Z" fill="#FDFDFF"/>
</svg>
