<svg width="60" height="60" viewBox="0 0 60 60" fill="none" xmlns="http://www.w3.org/2000/svg">
<path d="M20.649 16.6021L22.737 19.7347H18.4799L28.2062 31.6611V43.5098C25.6195 43.5337 23.5953 43.725 23.5953 43.9641C23.5957 43.971 23.5975 43.9777 23.6005 43.9839C23.6035 43.99 23.6076 43.9955 23.6127 44H33.7392C33.7443 43.9955 33.7484 43.99 33.7514 43.9839C33.7544 43.9777 33.7562 43.971 33.7566 43.9641C33.7566 43.725 31.7325 43.5337 29.1457 43.5098V31.6671L38.872 19.7407H23.7693L21.3566 16.106C21.1447 15.7875 20.8607 15.5269 20.5293 15.3467C20.1979 15.1666 19.8289 15.0722 19.4543 15.0717H15V15.9565H19.4485C19.6844 15.9556 19.917 16.0139 20.1261 16.1264C20.3353 16.2389 20.5148 16.4022 20.649 16.6021ZM36.9117 20.6792L35.2645 22.6999H25.7413L24.3957 20.6792H36.9117ZM23.3633 20.6792L24.7089 22.6999H23.1719L29.2211 30.1187L28.6818 30.7823L20.446 20.6792H23.3633Z" fill="#163152"/>
<path d="M39.7652 22.8374C40.4244 22.8374 41.0692 22.6384 41.62 22.2651C42.1708 21.8917 42.6034 21.3603 42.8646 20.7364C43.1257 20.1125 43.2039 19.4234 43.0895 18.7543C42.9751 18.0851 42.6731 17.4651 42.2208 16.9708C41.7685 16.4765 41.1857 16.1295 40.5443 15.9727C39.9028 15.8159 39.2309 15.8561 38.6114 16.0884C37.9919 16.3206 37.4519 16.7348 37.0582 17.2797C36.6644 17.8246 36.434 18.4765 36.3955 19.1548H35.5371C35.5769 18.3015 35.8587 17.479 36.3477 16.7893C36.8366 16.0996 37.5112 15.5729 38.2878 15.2747C39.0645 14.9764 39.9089 14.9196 40.7166 15.1114C41.5242 15.3031 42.2594 15.735 42.8312 16.3534C43.4029 16.9719 43.786 17.7496 43.9329 18.5904C44.0799 19.4311 43.9842 20.2978 43.6577 21.083C43.3313 21.8682 42.7885 22.5374 42.0965 23.0076C41.4046 23.4778 40.594 23.7283 39.7652 23.7281C38.8125 23.73 37.8878 23.3968 37.1437 22.7835L37.6947 22.108C38.2879 22.5799 39.0159 22.8364 39.7652 22.8374Z" fill="#163152"/>
<circle cx="30" cy="30" r="29.5" stroke="#00C6BD"/>
</svg>
