<svg width="60" height="60" viewBox="0 0 60 60" fill="none" xmlns="http://www.w3.org/2000/svg">
<path d="M45.0177 30.8924C45.0738 30.781 45.1031 30.6584 45.1034 30.534V29.3417C45.1028 28.9482 44.944 28.571 44.6618 28.2927C44.3796 28.0145 43.9971 27.8579 43.598 27.8573H42.6057V21.2004C42.6041 20.6172 42.3683 20.0583 41.95 19.646C41.5317 19.2337 40.9649 19.0014 40.3735 19H18.6914C18.0995 19.0008 17.5321 19.2328 17.1133 19.6452C16.6945 20.0576 16.4584 20.6168 16.4568 21.2004V27.8573H15.4012C15.0021 27.8577 14.6194 28.0142 14.3372 28.2925C14.055 28.5708 13.8962 28.9482 13.8958 29.3417V30.534C13.8962 30.6586 13.9255 30.7815 13.9815 30.8932C13.4132 31.0455 12.9114 31.3778 12.5533 31.8389C12.1953 32.3 12.0009 32.8644 12 33.4451V36.9976C12.0004 37.3111 12.1269 37.6116 12.3517 37.8332C12.5764 38.0549 12.8812 38.1796 13.1991 38.18H15.6867V39.2878C15.6871 39.4767 15.7635 39.6577 15.899 39.7912C16.0345 39.9247 16.2182 39.9998 16.4097 40H17.0579C17.2494 39.9998 17.4331 39.9247 17.5686 39.7912C17.7041 39.6577 17.7805 39.4767 17.7809 39.2878V38.18H42.0494V39.2878C42.0498 39.4767 42.1261 39.6577 42.2616 39.7912C42.3972 39.9247 42.5808 39.9998 42.7724 40H43.4205C43.6121 39.9998 43.7957 39.9247 43.9313 39.7912C44.0668 39.6577 44.1431 39.4767 44.1435 39.2878V38.18H45.8009C46.1188 38.1796 46.4236 38.0549 46.6483 37.8332C46.8731 37.6116 46.9996 37.3111 47 36.9976V33.4451C46.9991 32.8642 46.8046 32.2996 46.4464 31.8383C46.0883 31.3771 45.5863 31.0447 45.0177 30.8924ZM17.0154 21.2004C17.0158 20.7628 17.1921 20.3431 17.5057 20.0334C17.8192 19.7236 18.2444 19.549 18.6883 19.5478H40.3742C40.8185 19.5484 41.2444 19.7227 41.5586 20.0325C41.8728 20.3423 42.0495 20.7623 42.0502 21.2004V27.788H38.7593V27.0652C38.7591 26.8543 38.6741 26.6521 38.5229 26.5029C38.3718 26.3538 38.1668 26.2698 37.9529 26.2693H32.159C31.945 26.2695 31.7398 26.3535 31.5885 26.5027C31.4372 26.6519 31.3521 26.8542 31.3519 27.0652V27.7918H27.7099V27.0652C27.7097 26.8543 27.6247 26.6521 27.4735 26.5029C27.3224 26.3538 27.1174 26.2698 26.9035 26.2693H21.1096C20.8956 26.2695 20.6904 26.3535 20.5391 26.5027C20.3878 26.6519 20.3027 26.8542 20.3025 27.0652V27.7918H17.0154V21.2004ZM38.2037 27.0652V27.7918H31.9074V27.0652C31.9074 26.9994 31.9339 26.9363 31.9811 26.8898C32.0283 26.8433 32.0922 26.8172 32.159 26.8172H37.9529C38.0195 26.8174 38.0833 26.8436 38.1303 26.8901C38.1773 26.9366 38.2037 26.9996 38.2037 27.0652ZM27.1543 27.0652V27.7918H20.858V27.0652C20.858 26.9994 20.8845 26.9363 20.9317 26.8898C20.9789 26.8433 21.0429 26.8172 21.1096 26.8172H26.9035C26.9701 26.8174 27.0339 26.8436 27.0809 26.8901C27.1279 26.9366 27.1543 26.9996 27.1543 27.0652ZM14.4514 29.3478C14.4516 29.0995 14.5517 28.8614 14.7298 28.6858C14.9079 28.5101 15.1494 28.4114 15.4012 28.4112H43.598C43.8498 28.4116 44.0911 28.5104 44.2692 28.686C44.4472 28.8615 44.5474 29.0995 44.5478 29.3478V30.5401C44.5478 30.6107 44.5194 30.6785 44.4687 30.7284C44.4181 30.7784 44.3494 30.8064 44.2778 30.8064H14.7253C14.6537 30.8064 14.585 30.7784 14.5343 30.7284C14.4837 30.6785 14.4552 30.6107 14.4552 30.5401L14.4514 29.3478ZM17.2292 39.2932C17.2292 39.3148 17.2248 39.3363 17.2164 39.3563C17.208 39.3764 17.1957 39.3946 17.1801 39.4099C17.1646 39.4252 17.1461 39.4374 17.1258 39.4457C17.1055 39.454 17.0837 39.4583 17.0617 39.4583H16.4136C16.3909 39.4586 16.3683 39.4543 16.3473 39.4458C16.3263 39.4373 16.3073 39.4246 16.2914 39.4086C16.2756 39.3926 16.2631 39.3736 16.255 39.3527C16.2468 39.3318 16.243 39.3094 16.2438 39.2871V38.2287H17.2253L17.2292 39.2932ZM43.5918 39.2932C43.5918 39.3148 43.5875 39.3363 43.5791 39.3563C43.5707 39.3764 43.5583 39.3946 43.5428 39.4099C43.5272 39.4252 43.5088 39.4374 43.4885 39.4457C43.4681 39.454 43.4464 39.4583 43.4244 39.4583H42.7762C42.732 39.4581 42.6896 39.4406 42.6583 39.4096C42.6271 39.3787 42.6096 39.3368 42.6096 39.2932V38.2287H43.5918V39.2871V39.2932ZM46.4468 37.0037C46.4466 37.1719 46.3787 37.3332 46.258 37.4522C46.1374 37.5711 45.9739 37.6381 45.8032 37.6383H13.1991C13.0285 37.6381 12.8649 37.5711 12.7443 37.4522C12.6236 37.3332 12.5558 37.1719 12.5556 37.0037V33.4451C12.5562 32.8893 12.7803 32.3565 13.1789 31.9635C13.5774 31.5706 14.1177 31.3495 14.6813 31.3489H44.3179C44.8816 31.3493 45.4222 31.5703 45.8209 31.9633C46.2196 32.3563 46.4438 32.8892 46.4444 33.4451V36.9976L46.4468 37.0037Z" fill="#163152"/>
<path d="M27.1543 27.0652V27.7918H20.858V27.0652C20.858 26.9994 20.8845 26.9363 20.9317 26.8898C20.9789 26.8433 21.0429 26.8172 21.1096 26.8172H26.9035C26.9701 26.8174 27.0339 26.8436 27.0809 26.8901C27.1279 26.9366 27.1543 26.9996 27.1543 27.0652Z" fill="#163152"/>
<path d="M38.2037 27.0652V27.7918H31.9074V27.0652C31.9074 26.9994 31.9339 26.9363 31.9811 26.8898C32.0283 26.8433 32.0922 26.8172 32.159 26.8172H37.9529C38.0195 26.8174 38.0833 26.8436 38.1303 26.8901C38.1773 26.9366 38.2037 26.9996 38.2037 27.0652Z" fill="#163152"/>
<path d="M43.5918 39.2932C43.5918 39.3148 43.5875 39.3363 43.5791 39.3563C43.5707 39.3764 43.5583 39.3946 43.5428 39.4099C43.5272 39.4252 43.5088 39.4374 43.4885 39.4457C43.4681 39.454 43.4464 39.4583 43.4244 39.4583H42.7762C42.732 39.4581 42.6896 39.4406 42.6583 39.4096C42.6271 39.3787 42.6096 39.3368 42.6096 39.2932V38.2287H43.5918V39.2871V39.2932Z" fill="#163152"/>
<path d="M17.2292 39.2932C17.2292 39.3148 17.2248 39.3363 17.2164 39.3563C17.208 39.3764 17.1957 39.3946 17.1801 39.4099C17.1646 39.4252 17.1461 39.4374 17.1258 39.4457C17.1055 39.454 17.0837 39.4583 17.0617 39.4583H16.4136C16.3909 39.4586 16.3683 39.4543 16.3473 39.4458C16.3263 39.4373 16.3073 39.4246 16.2914 39.4086C16.2756 39.3926 16.2631 39.3736 16.255 39.3527C16.2468 39.3318 16.243 39.3094 16.2438 39.2871V38.2287H17.2253L17.2292 39.2932Z" fill="#163152"/>
<path d="M45.0177 30.8924C45.0738 30.781 45.1031 30.6584 45.1034 30.534V29.3417C45.1028 28.9482 44.944 28.571 44.6618 28.2927C44.3796 28.0145 43.9971 27.8579 43.598 27.8573H42.6057V21.2004C42.6041 20.6172 42.3683 20.0583 41.95 19.646C41.5317 19.2337 40.9649 19.0014 40.3735 19H18.6914C18.0995 19.0008 17.5321 19.2328 17.1133 19.6452C16.6945 20.0576 16.4584 20.6168 16.4568 21.2004V27.8573H15.4012C15.0021 27.8577 14.6194 28.0142 14.3372 28.2925C14.055 28.5708 13.8962 28.9482 13.8958 29.3417V30.534C13.8962 30.6586 13.9255 30.7815 13.9815 30.8932C13.4132 31.0455 12.9114 31.3778 12.5533 31.8389C12.1953 32.3 12.0009 32.8644 12 33.4451V36.9976C12.0004 37.3111 12.1269 37.6116 12.3517 37.8332C12.5764 38.0549 12.8812 38.1796 13.1991 38.18H15.6867V39.2878C15.6871 39.4767 15.7635 39.6577 15.899 39.7912C16.0345 39.9247 16.2182 39.9998 16.4097 40H17.0579C17.2494 39.9998 17.4331 39.9247 17.5686 39.7912C17.7041 39.6577 17.7805 39.4767 17.7809 39.2878V38.18H42.0494V39.2878C42.0498 39.4767 42.1261 39.6577 42.2616 39.7912C42.3972 39.9247 42.5808 39.9998 42.7724 40H43.4205C43.6121 39.9998 43.7957 39.9247 43.9313 39.7912C44.0668 39.6577 44.1431 39.4767 44.1435 39.2878V38.18H45.8009C46.1188 38.1796 46.4236 38.0549 46.6483 37.8332C46.8731 37.6116 46.9996 37.3111 47 36.9976V33.4451C46.9991 32.8642 46.8046 32.2996 46.4464 31.8383C46.0883 31.3771 45.5863 31.0447 45.0177 30.8924ZM17.0154 21.2004C17.0158 20.7628 17.1921 20.3431 17.5057 20.0334C17.8192 19.7236 18.2444 19.549 18.6883 19.5478H40.3742C40.8185 19.5484 41.2444 19.7227 41.5586 20.0325C41.8728 20.3423 42.0495 20.7623 42.0502 21.2004V27.788H38.7593V27.0652C38.7591 26.8543 38.6741 26.6521 38.5229 26.5029C38.3718 26.3538 38.1668 26.2698 37.9529 26.2693H32.159C31.945 26.2695 31.7398 26.3535 31.5885 26.5027C31.4372 26.6519 31.3521 26.8542 31.3519 27.0652V27.7918H27.7099V27.0652C27.7097 26.8543 27.6247 26.6521 27.4735 26.5029C27.3224 26.3538 27.1174 26.2698 26.9035 26.2693H21.1096C20.8956 26.2695 20.6904 26.3535 20.5391 26.5027C20.3878 26.6519 20.3027 26.8542 20.3025 27.0652V27.7918H17.0154V21.2004ZM38.2037 27.0652V27.7918H31.9074V27.0652C31.9074 26.9994 31.9339 26.9363 31.9811 26.8898C32.0283 26.8433 32.0922 26.8172 32.159 26.8172H37.9529C38.0195 26.8174 38.0833 26.8436 38.1303 26.8901C38.1773 26.9366 38.2037 26.9996 38.2037 27.0652ZM27.1543 27.0652V27.7918H20.858V27.0652C20.858 26.9994 20.8845 26.9363 20.9317 26.8898C20.9789 26.8433 21.0429 26.8172 21.1096 26.8172H26.9035C26.9701 26.8174 27.0339 26.8436 27.0809 26.8901C27.1279 26.9366 27.1543 26.9996 27.1543 27.0652ZM14.4514 29.3478C14.4516 29.0995 14.5517 28.8614 14.7298 28.6858C14.9079 28.5101 15.1494 28.4114 15.4012 28.4112H43.598C43.8498 28.4116 44.0911 28.5104 44.2692 28.686C44.4472 28.8615 44.5474 29.0995 44.5478 29.3478V30.5401C44.5478 30.6107 44.5194 30.6785 44.4687 30.7284C44.4181 30.7784 44.3494 30.8064 44.2778 30.8064H14.7253C14.6537 30.8064 14.585 30.7784 14.5343 30.7284C14.4837 30.6785 14.4552 30.6107 14.4552 30.5401L14.4514 29.3478ZM17.2292 39.2932C17.2292 39.3148 17.2248 39.3363 17.2164 39.3563C17.208 39.3764 17.1957 39.3946 17.1801 39.4099C17.1646 39.4252 17.1461 39.4374 17.1258 39.4457C17.1055 39.454 17.0837 39.4583 17.0617 39.4583H16.4136C16.3909 39.4586 16.3683 39.4543 16.3473 39.4458C16.3263 39.4373 16.3073 39.4246 16.2914 39.4086C16.2756 39.3926 16.2631 39.3736 16.255 39.3527C16.2468 39.3318 16.243 39.3094 16.2438 39.2871V38.2287H17.2253L17.2292 39.2932ZM43.5918 39.2932C43.5918 39.3148 43.5875 39.3363 43.5791 39.3563C43.5707 39.3764 43.5583 39.3946 43.5428 39.4099C43.5272 39.4252 43.5088 39.4374 43.4885 39.4457C43.4681 39.454 43.4464 39.4583 43.4244 39.4583H42.7762C42.732 39.4581 42.6896 39.4406 42.6583 39.4096C42.6271 39.3787 42.6096 39.3368 42.6096 39.2932V38.2287H43.5918V39.2871V39.2932ZM46.4468 37.0037C46.4466 37.1719 46.3787 37.3332 46.258 37.4522C46.1374 37.5711 45.9739 37.6381 45.8032 37.6383H13.1991C13.0285 37.6381 12.8649 37.5711 12.7443 37.4522C12.6236 37.3332 12.5558 37.1719 12.5556 37.0037V33.4451C12.5562 32.8893 12.7803 32.3565 13.1789 31.9635C13.5774 31.5706 14.1177 31.3495 14.6813 31.3489H44.3179C44.8816 31.3493 45.4222 31.5703 45.8209 31.9633C46.2196 32.3563 46.4438 32.8892 46.4444 33.4451V36.9976L46.4468 37.0037Z" stroke="#163152"/>
<path d="M27.1543 27.0652V27.7918H20.858V27.0652C20.858 26.9994 20.8845 26.9363 20.9317 26.8898C20.9789 26.8433 21.0429 26.8172 21.1096 26.8172H26.9035C26.9701 26.8174 27.0339 26.8436 27.0809 26.8901C27.1279 26.9366 27.1543 26.9996 27.1543 27.0652Z" stroke="#163152"/>
<path d="M38.2037 27.0652V27.7918H31.9074V27.0652C31.9074 26.9994 31.9339 26.9363 31.9811 26.8898C32.0283 26.8433 32.0922 26.8172 32.159 26.8172H37.9529C38.0195 26.8174 38.0833 26.8436 38.1303 26.8901C38.1773 26.9366 38.2037 26.9996 38.2037 27.0652Z" stroke="#163152"/>
<path d="M43.5918 39.2932C43.5918 39.3148 43.5875 39.3363 43.5791 39.3563C43.5707 39.3764 43.5583 39.3946 43.5428 39.4099C43.5272 39.4252 43.5088 39.4374 43.4885 39.4457C43.4681 39.454 43.4464 39.4583 43.4244 39.4583H42.7762C42.732 39.4581 42.6896 39.4406 42.6583 39.4096C42.6271 39.3787 42.6096 39.3368 42.6096 39.2932V38.2287H43.5918V39.2871V39.2932Z" stroke="#163152"/>
<path d="M17.2292 39.2932C17.2292 39.3148 17.2248 39.3363 17.2164 39.3563C17.208 39.3764 17.1957 39.3946 17.1801 39.4099C17.1646 39.4252 17.1461 39.4374 17.1258 39.4457C17.1055 39.454 17.0837 39.4583 17.0617 39.4583H16.4136C16.3909 39.4586 16.3683 39.4543 16.3473 39.4458C16.3263 39.4373 16.3073 39.4246 16.2914 39.4086C16.2756 39.3926 16.2631 39.3736 16.255 39.3527C16.2468 39.3318 16.243 39.3094 16.2438 39.2871V38.2287H17.2253L17.2292 39.2932Z" stroke="#163152"/>
<circle cx="30" cy="30" r="29.5" stroke="#00C6BD"/>
</svg>
