<svg width="60" height="60" viewBox="0 0 60 60" fill="none" xmlns="http://www.w3.org/2000/svg">
<path d="M49.4837 39.5902H46.2191C46.0647 35.3522 44.5774 31.3014 42.0073 28.1191C39.4372 24.9368 35.941 22.8171 32.1067 22.1164V21.3002C32.1067 20.6901 31.8846 20.1051 31.4892 19.6737C31.0938 19.2423 30.5576 19 29.9984 19C29.4392 19 28.9029 19.2423 28.5075 19.6737C28.1122 20.1051 27.89 20.6901 27.89 21.3002V21.9309C23.7898 22.3179 19.9608 24.3267 17.1236 27.5792C14.2864 30.8316 12.6368 35.1033 12.4854 39.5902H10.5471C10.4685 39.5962 10.3918 39.6194 10.3216 39.6584C10.2514 39.6973 10.189 39.7513 10.1383 39.817C10.0876 39.8828 10.0494 39.959 10.0262 40.0411C10.0029 40.1232 9.99506 40.2096 10.003 40.2951C9.99246 40.4666 10.0433 40.6358 10.1447 40.7673C10.2462 40.8987 10.3904 40.9821 10.5471 41H49.4497C49.5283 40.994 49.6049 40.9708 49.6752 40.9318C49.7454 40.8929 49.8077 40.8389 49.8585 40.7732C49.9092 40.7074 49.9473 40.6312 49.9706 40.5491C49.9938 40.467 50.0017 40.3806 49.9938 40.2951C50.0052 40.2119 50.0009 40.127 49.9811 40.0456C49.9613 39.9643 49.9264 39.8883 49.8786 39.8222C49.8308 39.7562 49.7711 39.7015 49.7032 39.6616C49.6352 39.6217 49.5605 39.5974 49.4837 39.5902ZM13.7436 39.5902C13.9118 35.1969 15.6298 31.0446 18.5386 28.0009C21.4474 24.9572 25.3218 23.2578 29.3523 23.2578C33.3827 23.2578 37.2572 24.9572 40.166 28.0009C43.0748 31.0446 44.7928 35.1969 44.9609 39.5902H13.7436ZM29.9984 20.3727C30.1103 20.3717 30.2212 20.395 30.3248 20.4413C30.4283 20.4875 30.5224 20.5558 30.6015 20.6421C30.6807 20.7285 30.7433 20.8311 30.7857 20.9441C30.8281 21.057 30.8494 21.1781 30.8485 21.3002V21.9309C30.3384 21.8938 29.8624 21.8567 29.3523 21.8567H29.1822V21.3002C29.1837 21.061 29.2692 20.8316 29.421 20.6591C29.5728 20.4866 29.7794 20.3841 29.9984 20.3727Z" fill="#163152"/>
<path d="M37.6157 27.2361C37.5331 27.2166 37.4478 27.2151 37.3646 27.2315C37.2815 27.248 37.2021 27.2822 37.1311 27.3322C37.06 27.3821 36.9987 27.4469 36.9506 27.5227C36.9024 27.5985 36.8685 27.6839 36.8506 27.774C36.8328 27.8642 36.8313 27.9573 36.8465 28.048C36.8616 28.1387 36.8929 28.2253 36.9387 28.3028C36.9845 28.3803 37.0438 28.4472 37.1133 28.4997C37.1828 28.5522 37.2611 28.5893 37.3437 28.6088C37.4457 28.6459 39.5541 29.1653 40.6083 32.5413C40.6519 32.681 40.7343 32.8024 40.8439 32.8888C40.9536 32.9752 41.0851 33.0223 41.2204 33.0236C41.2901 33.0295 41.3601 33.0167 41.4244 32.9865C41.5866 32.9273 41.7206 32.8003 41.7971 32.6333C41.8736 32.4664 41.8863 32.2732 41.8325 32.0961C40.5402 27.9039 37.7518 27.2361 37.6157 27.2361Z" fill="#163152"/>
<circle cx="30" cy="30" r="29.5" stroke="#00C6BD"/>
</svg>
