<svg width="40" height="22" viewBox="0 0 40 22" fill="none" xmlns="http://www.w3.org/2000/svg">
<path d="M39.4837 20.5902H36.2191C36.0647 16.3522 34.5774 12.3014 32.0073 9.11912C29.4372 5.93681 25.941 3.81707 22.1067 3.11636V2.30017C22.1067 1.69013 21.8846 1.10507 21.4892 0.673704C21.0938 0.242339 20.5576 0 19.9984 0C19.4392 0 18.9029 0.242339 18.5075 0.673704C18.1122 1.10507 17.89 1.69013 17.89 2.30017V2.93086C13.7898 3.31789 9.96076 5.32671 7.12358 8.57917C4.2864 11.8316 2.63684 16.1033 2.48541 20.5902H0.547084C0.468497 20.5962 0.391819 20.6194 0.321599 20.6584C0.251379 20.6973 0.189048 20.7513 0.138303 20.817C0.0875574 20.8828 0.0494321 20.959 0.0261886 21.0411C0.00294508 21.1232 -0.00494317 21.2096 0.00299184 21.2951C-0.00754086 21.4666 0.0432642 21.6358 0.144729 21.7673C0.246193 21.8987 0.390416 21.9821 0.547084 22H39.4497C39.5283 21.994 39.6049 21.9708 39.6752 21.9318C39.7454 21.8929 39.8077 21.8389 39.8585 21.7732C39.9092 21.7074 39.9473 21.6312 39.9706 21.5491C39.9938 21.467 40.0017 21.3806 39.9938 21.2951C40.0052 21.2119 40.0009 21.127 39.9811 21.0456C39.9613 20.9643 39.9264 20.8883 39.8786 20.8222C39.8308 20.7562 39.7711 20.7015 39.7032 20.6616C39.6352 20.6217 39.5605 20.5974 39.4837 20.5902ZM3.74363 20.5902C3.91178 16.1969 5.62978 12.0446 8.53857 9.00088C11.4474 5.9572 15.3218 4.25778 19.3523 4.25778C23.3827 4.25778 27.2572 5.9572 30.166 9.00088C33.0748 12.0446 34.7928 16.1969 34.9609 20.5902H3.74363ZM19.9984 1.37268C20.1103 1.37169 20.2212 1.39501 20.3248 1.44127C20.4283 1.48753 20.5224 1.55581 20.6015 1.64213C20.6807 1.72846 20.7433 1.83109 20.7857 1.94407C20.8281 2.05704 20.8494 2.17809 20.8485 2.30017V2.93086C20.3384 2.89376 19.8624 2.85666 19.3523 2.85666H19.1822V2.30017C19.1837 2.06102 19.2692 1.8316 19.421 1.65908C19.5728 1.48656 19.7794 1.38406 19.9984 1.37268Z" fill="#163152"/>
<path d="M27.6157 8.23609C27.5331 8.2166 27.4478 8.21506 27.3646 8.23155C27.2815 8.24803 27.2021 8.28223 27.1311 8.33218C27.06 8.38214 26.9987 8.44687 26.9506 8.52268C26.9024 8.59849 26.8685 8.6839 26.8506 8.77403C26.8328 8.86417 26.8313 8.95725 26.8465 9.04798C26.8616 9.13871 26.8929 9.2253 26.9387 9.30282C26.9845 9.38033 27.0438 9.44724 27.1133 9.49974C27.1828 9.55224 27.2611 9.58929 27.3437 9.60877C27.4457 9.64587 29.5541 10.1653 30.6083 13.5413C30.6519 13.681 30.7343 13.8024 30.8439 13.8888C30.9536 13.9752 31.0851 14.0223 31.2204 14.0236C31.2901 14.0295 31.3601 14.0167 31.4244 13.9865C31.5866 13.9273 31.7206 13.8003 31.7971 13.6333C31.8736 13.4664 31.8863 13.2732 31.8325 13.0961C30.5402 8.90388 27.7518 8.23609 27.6157 8.23609Z" fill="#163152"/>
</svg>
