<svg width="56" height="52" viewBox="0 0 56 52" fill="none" xmlns="http://www.w3.org/2000/svg">
<path d="M53.8495 0L56 2.42667C47.2258 8.89778 42.8387 15.8889 42.8387 23.4C42.8387 29.8133 46.3082 35.3022 53.2473 39.8667L41.1183 52C34.1219 46.7422 30.6237 40.5022 30.6237 33.28C30.6237 23.0533 38.3656 11.96 53.8495 0ZM23.2258 0L25.3763 2.42667C16.6021 8.89778 12.2151 15.8889 12.2151 23.4C12.2151 29.8133 15.6559 35.3022 22.5376 39.8667L10.4946 52C3.49821 46.7422 0 40.5022 0 33.28C0 23.0533 7.74194 11.96 23.2258 0Z" fill="#00C6BD"/>
</svg>
